<svg xmlns="http://www.w3.org/2000/svg" viewBox="0 0 1200 500" role="img" aria-labelledby="title desc">
	<title id="title">Exam permission notice illustration</title>
	<desc id="desc">A verified document and shield on a green background.</desc>
	<defs>
		<linearGradient id="bg" x1="0" y1="0" x2="1" y2="1">
			<stop stop-color="#075c58"/>
			<stop offset="1" stop-color="#24a86d"/>
		</linearGradient>
	</defs>
	<rect width="1200" height="500" fill="url(#bg)"/>
	<circle cx="1050" cy="70" r="230" fill="#8cf3b8" opacity=".18"/>
	<path d="M0 415c240-70 365 35 565-25 250-75 400-45 635 15v95H0z" fill="#03433f" opacity=".3"/>
	<g transform="translate(700 55)">
		<rect x="25" y="28" width="340" height="365" rx="25" fill="#003f3c" opacity=".3"/>
		<rect width="340" height="365" rx="25" fill="#f8fffb"/>
		<rect x="48" y="64" width="190" height="22" rx="11" fill="#08766b"/>
		<rect x="48" y="115" width="245" height="14" rx="7" fill="#9dc9be"/>
		<rect x="48" y="153" width="215" height="14" rx="7" fill="#9dc9be"/>
		<rect x="48" y="191" width="235" height="14" rx="7" fill="#9dc9be"/>
		<rect x="48" y="229" width="170" height="14" rx="7" fill="#9dc9be"/>
		<circle cx="258" cy="286" r="53" fill="#ffbf3f"/>
		<path d="m230 285 19 20 39-48" fill="none" stroke="#fff" stroke-width="13" stroke-linecap="round" stroke-linejoin="round"/>
	</g>
	<g transform="translate(585 255)">
		<path d="M100 0c38 28 72 35 100 38v82c0 61-41 105-100 132C41 225 0 181 0 120V38C28 35 62 28 100 0z" fill="#063d3a" opacity=".35"/>
		<path d="M85 0c38 28 72 35 100 38v82c0 61-41 105-100 132C26 225-15 181-15 120V38C13 35 47 28 85 0z" fill="#f3fff8"/>
		<path d="m35 118 34 35 68-83" fill="none" stroke="#16a36b" stroke-width="20" stroke-linecap="round" stroke-linejoin="round"/>
	</g>
</svg>
