<svg xmlns="http://www.w3.org/2000/svg" viewBox="0 0 1200 500" role="img" aria-labelledby="title desc">
	<title id="title">Exam preparation illustration</title>
	<desc id="desc">Books, notes and a calendar on a blue background.</desc>
	<defs>
		<linearGradient id="bg" x1="0" y1="0" x2="1" y2="1">
			<stop stop-color="#0f3b82"/>
			<stop offset="1" stop-color="#1d8ee8"/>
		</linearGradient>
		<linearGradient id="paper" x1="0" y1="0" x2="0" y2="1">
			<stop stop-color="#fff"/>
			<stop offset="1" stop-color="#dceeff"/>
		</linearGradient>
	</defs>
	<rect width="1200" height="500" fill="url(#bg)"/>
	<circle cx="970" cy="80" r="190" fill="#67c5ff" opacity=".22"/>
	<circle cx="1080" cy="420" r="240" fill="#092c63" opacity=".24"/>
	<g transform="translate(715 72)">
		<rect x="35" y="55" width="330" height="310" rx="24" fill="#082654" opacity=".3"/>
		<rect width="330" height="310" rx="24" fill="url(#paper)"/>
		<rect width="330" height="78" rx="24" fill="#ff5d5d"/>
		<rect y="52" width="330" height="26" fill="#ff5d5d"/>
		<circle cx="75" cy="42" r="12" fill="#fff"/>
		<circle cx="255" cy="42" r="12" fill="#fff"/>
		<g fill="#1d65a8">
			<rect x="48" y="112" width="60" height="48" rx="9"/>
			<rect x="135" y="112" width="60" height="48" rx="9" opacity=".35"/>
			<rect x="222" y="112" width="60" height="48" rx="9" opacity=".35"/>
			<rect x="48" y="184" width="60" height="48" rx="9" opacity=".35"/>
			<rect x="135" y="184" width="60" height="48" rx="9" opacity=".35"/>
			<rect x="222" y="184" width="60" height="48" rx="9" opacity=".35"/>
		</g>
		<path d="m62 132 13 13 25-30" fill="none" stroke="#fff" stroke-width="9" stroke-linecap="round" stroke-linejoin="round"/>
	</g>
	<g transform="translate(590 310)">
		<rect x="0" y="70" width="430" height="62" rx="13" fill="#f2b84b"/>
		<rect x="40" y="14" width="410" height="62" rx="13" fill="#ff6f61"/>
		<rect x="82" y="-42" width="370" height="62" rx="13" fill="#f6f8ff"/>
		<path d="M115-15h190" stroke="#9bb6d5" stroke-width="9" stroke-linecap="round"/>
	</g>
	<g fill="#fff" opacity=".7">
		<circle cx="105" cy="90" r="6"/><circle cx="170" cy="390" r="9"/><circle cx="530" cy="110" r="8"/>
	</g>
</svg>
