<svg xmlns="http://www.w3.org/2000/svg" width="900" height="1200" viewBox="0 0 900 1200" role="img" aria-labelledby="title desc">
  <title id="title">Question paper preview unavailable</title>
  <desc id="desc">A neutral document placeholder for PDF question papers.</desc>
  <rect width="900" height="1200" fill="#f7fafc"/>
  <rect x="90" y="80" width="720" height="1040" rx="28" fill="#ffffff" stroke="#cbd5e1" stroke-width="6"/>
  <path d="M640 80v190h170" fill="#eef6ff"/>
  <path d="M640 80v190h170" fill="none" stroke="#93c5fd" stroke-width="6" stroke-linejoin="round"/>
  <rect x="150" y="190" width="280" height="34" rx="17" fill="#1d4ed8"/>
  <rect x="150" y="262" width="390" height="20" rx="10" fill="#94a3b8"/>
  <rect x="150" y="314" width="600" height="18" rx="9" fill="#dbe3ee"/>
  <rect x="150" y="360" width="560" height="18" rx="9" fill="#dbe3ee"/>
  <rect x="150" y="406" width="610" height="18" rx="9" fill="#dbe3ee"/>
  <rect x="150" y="510" width="600" height="300" rx="20" fill="#eff6ff" stroke="#bfdbfe" stroke-width="4"/>
  <path d="M305 662h290M450 517v290" stroke="#bfdbfe" stroke-width="4"/>
  <circle cx="450" cy="660" r="86" fill="#2563eb"/>
  <text x="450" y="690" fill="#ffffff" font-family="Arial, Helvetica, sans-serif" font-size="74" font-weight="700" text-anchor="middle">PDF</text>
  <rect x="150" y="890" width="600" height="18" rx="9" fill="#dbe3ee"/>
  <rect x="150" y="936" width="520" height="18" rx="9" fill="#dbe3ee"/>
  <rect x="150" y="982" width="570" height="18" rx="9" fill="#dbe3ee"/>
  <text x="450" y="1080" fill="#475569" font-family="Arial, Helvetica, sans-serif" font-size="30" font-weight="700" text-anchor="middle">Preview unavailable</text>
</svg>
