<svg xmlns="http://www.w3.org/2000/svg" height="220" style="background: #fff; border: 1px solid #ccc; font-family: sans-serif" viewbox="0 0 400 220" width="400">
<defs>
<marker id="dijkstra-arrow" markerheight="6" markerwidth="6" orient="auto-start-reverse" refx="20" refy="5" viewbox="0 0 10 10">
<path d="M 0 1.5 L 10 5 L 0 8.5 z" fill="#333"></path>
</marker>
</defs>
<circle cx="40" cy="40" fill="none" r="16" stroke="#333" stroke-width="1.5"></circle>
<text text-anchor="middle" x="40" y="44">a</text>
<circle cx="180" cy="40" fill="none" r="16" stroke="#333" stroke-width="1.5"></circle>
<text text-anchor="middle" x="180" y="44">b</text>
<circle cx="180" cy="110" fill="none" r="16" stroke="#333" stroke-width="1.5"></circle>
<text text-anchor="middle" x="180" y="114">c</text>
<circle cx="340" cy="110" fill="none" r="16" stroke="#333" stroke-width="1.5"></circle>
<text text-anchor="middle" x="340" y="114">d</text>
<circle cx="40" cy="110" fill="none" r="16" stroke="#333" stroke-width="1.5"></circle>
<text text-anchor="middle" x="40" y="114">e</text>
<circle cx="280" cy="180" fill="none" r="16" stroke="#333" stroke-width="1.5"></circle>
<text text-anchor="middle" x="280" y="184">f</text>
<circle cx="140" cy="180" fill="none" r="16" stroke="#333" stroke-width="1.5"></circle>
<text text-anchor="middle" x="140" y="184">g</text>
<line marker-end="url(#dijkstra-arrow)" stroke="#333" stroke-width="1.5" x1="56" x2="164" y1="40" y2="40"></line>
<line marker-end="url(#dijkstra-arrow)" stroke="#333" stroke-width="1.5" x1="54" x2="166" y1="49" y2="101"></line>
<line marker-end="url(#dijkstra-arrow)" stroke="#333" stroke-width="1.5" x1="40" x2="40" y1="56" y2="94"></line>
<line marker-end="url(#dijkstra-arrow)" stroke="#333" stroke-width="1.5" x1="180" x2="180" y1="56" y2="94"></line>
<line marker-end="url(#dijkstra-arrow)" stroke="#333" stroke-width="1.5" x1="194" x2="326" y1="46" y2="104"></line>
<line marker-end="url(#dijkstra-arrow)" stroke="#333" stroke-width="1.5" x1="196" x2="324" y1="110" y2="110"></line>
<line marker-end="url(#dijkstra-arrow)" stroke="#333" stroke-width="1.5" x1="170" x2="150" y1="122" y2="164"></line>
<line marker-end="url(#dijkstra-arrow)" stroke="#333" stroke-width="1.5" x1="334" x2="286" y1="124" y2="166"></line>
<line marker-end="url(#dijkstra-arrow)" stroke="#333" stroke-width="1.5" x1="54" x2="126" y1="118" y2="172"></line>
<line marker-end="url(#dijkstra-arrow)" stroke="#333" stroke-width="1.5" x1="264" x2="156" y1="180" y2="180"></line>
<text font-size="12" text-anchor="middle" x="110" y="34">2</text>
<text font-size="12" x="115" y="68">7</text>
<text font-size="12" x="28" y="80">10</text>
<text font-size="12" x="186" y="80">1</text>
<text font-size="12" x="260" y="65">2</text>
<text font-size="12" text-anchor="middle" x="260" y="104">2</text>
<text font-size="12" x="170" y="145">2</text>
<text font-size="12" x="320" y="150">2</text>
<text font-size="12" x="85" y="160">1</text>
<text font-size="12" text-anchor="middle" x="210" y="195">2</text>
</svg>