<svg xmlns="http://www.w3.org/2000/svg" height="200" style="background: #fff; border: 1px solid #ccc; font-family: sans-serif" viewbox="0 0 400 200" width="400">
<circle cx="50" cy="40" fill="none" r="16" stroke="#333" stroke-width="1.5"></circle>
<text text-anchor="middle" x="50" y="44">a</text>
<circle cx="50" cy="160" fill="none" r="16" stroke="#333" stroke-width="1.5"></circle>
<text text-anchor="middle" x="50" y="164">b</text>
<circle cx="200" cy="40" fill="none" r="16" stroke="#333" stroke-width="1.5"></circle>
<text text-anchor="middle" x="200" y="44">c</text>
<circle cx="200" cy="160" fill="none" r="16" stroke="#333" stroke-width="1.5"></circle>
<text text-anchor="middle" x="200" y="164">d</text>
<circle cx="120" cy="100" fill="none" r="16" stroke="#333" stroke-width="1.5"></circle>
<text text-anchor="middle" x="120" y="104">e</text>
<circle cx="300" cy="100" fill="none" r="16" stroke="#333" stroke-width="1.5"></circle>
<text text-anchor="middle" x="300" y="104">f</text>
<circle cx="370" cy="160" fill="none" r="16" stroke="#333" stroke-width="1.5"></circle>
<text text-anchor="middle" x="370" y="164">g</text>
<line stroke="#333" stroke-width="1.5" x1="66" x2="184" y1="40" y2="40"></line>
<line stroke="#333" stroke-width="1.5" x1="50" x2="50" y1="56" y2="144"></line>
<line stroke="#333" stroke-width="1.5" x1="63" x2="108" y1="149" y2="111"></line>
<line stroke="#333" stroke-width="1.5" x1="66" x2="184" y1="160" y2="160"></line>
<line stroke="#333" stroke-width="1.5" x1="134" x2="188" y1="111" y2="149"></line>
<line stroke="#333" stroke-width="1.5" x1="200" x2="200" y1="56" y2="144"></line>
<line stroke="#333" stroke-width="1.5" x1="212" x2="288" y1="51" y2="89"></line>
<line stroke="#333" stroke-width="1.5" x1="212" x2="288" y1="149" y2="111"></line>
<line stroke="#333" stroke-width="1.5" x1="216" x2="354" y1="160" y2="160"></line>
<line stroke="#333" stroke-width="1.5" x1="312" x2="358" y1="111" y2="149"></line>
<text font-size="12" x="125" y="34">1</text>
<text font-size="12" x="38" y="105">2</text>
<text font-size="12" x="90" y="125">3</text>
<text font-size="12" x="125" y="175">4</text>
<text font-size="12" x="170" y="125">5</text>
<text font-size="12" x="208" y="105">7</text>
<text font-size="12" x="260" y="65">6</text>
<text font-size="12" x="245" y="135">9</text>
<text font-size="12" x="285" y="175">2</text>
<text font-size="12" x="345" y="125">8</text>
</svg>