<svg xmlns="http://www.w3.org/2000/svg" height="200" style="background: #fff; border: 1px solid #ccc; font-family: sans-serif" viewbox="0 0 240 200" width="240">
<defs>
<marker id="arrow2" markerheight="6" markerwidth="6" orient="auto-start-reverse" refx="22" refy="5" viewbox="0 0 10 10">
<path d="M 0 1.5 L 10 5 L 0 8.5 z" fill="#333"></path>
</marker>
</defs>
<circle cx="50" cy="40" fill="none" r="18" stroke="#333" stroke-width="1.5"></circle>
<text text-anchor="middle" x="50" y="45">A</text>
<circle cx="190" cy="40" fill="none" r="18" stroke="#333" stroke-width="1.5"></circle>
<text text-anchor="middle" x="190" y="45">B</text>
<circle cx="50" cy="160" fill="none" r="18" stroke="#333" stroke-width="1.5"></circle>
<text text-anchor="middle" x="50" y="165">C</text>
<circle cx="190" cy="160" fill="none" r="18" stroke="#333" stroke-width="1.5"></circle>
<text text-anchor="middle" x="190" y="165">D</text>
<path d="M 50 40 Q 120 20 190 40" fill="none" marker-end="url(#arrow2)" stroke="#333" stroke-width="1.5"></path>
<path d="M 190 40 Q 120 60 50 40" fill="none" marker-end="url(#arrow2)" stroke="#333" stroke-width="1.5"></path>
<line marker-end="url(#arrow2)" stroke="#333" stroke-width="1.5" x1="190" x2="190" y1="40" y2="160"></line>
<line marker-end="url(#arrow2)" stroke="#333" stroke-width="1.5" x1="190" x2="50" y1="160" y2="160"></line>
<line marker-end="url(#arrow2)" stroke="#333" stroke-width="1.5" x1="50" x2="50" y1="160" y2="40"></line>
<line marker-end="url(#arrow2)" stroke="#333" stroke-width="1.5" x1="50" x2="190" y1="160" y2="40"></line>
<text font-size="12" text-anchor="middle" x="120" y="20">8</text>
<text font-size="12" text-anchor="middle" x="120" y="68">7</text>
<text font-size="12" x="196" y="105">3</text>
<text font-size="12" text-anchor="middle" x="120" y="175">2</text>
<text font-size="12" x="34" y="105">-3</text>
<text font-size="12" x="110" y="110">6</text>
</svg>