<svg xmlns="http://www.w3.org/2000/svg" height="200" style="background: #fff; border: 1px solid #ccc; font-family: sans-serif" viewbox="0 0 400 200" width="400">
<circle cx="50" cy="40" fill="none" r="18" stroke="#333" stroke-width="1.5"></circle>
<text text-anchor="middle" x="50" y="45">a</text>
<circle cx="50" cy="160" fill="none" r="18" stroke="#333" stroke-width="1.5"></circle>
<text text-anchor="middle" x="50" y="165">b</text>
<circle cx="150" cy="100" fill="none" r="18" stroke="#333" stroke-width="1.5"></circle>
<text text-anchor="middle" x="150" y="105">e</text>
<circle cx="230" cy="40" fill="none" r="18" stroke="#333" stroke-width="1.5"></circle>
<text text-anchor="middle" x="230" y="45">d</text>
<circle cx="230" cy="160" fill="none" r="18" stroke="#333" stroke-width="1.5"></circle>
<text text-anchor="middle" x="230" y="165">c</text>
<circle cx="310" cy="100" fill="none" r="18" stroke="#333" stroke-width="1.5"></circle>
<text text-anchor="middle" x="310" y="105">f</text>
<circle cx="370" cy="160" fill="none" r="18" stroke="#333" stroke-width="1.5"></circle>
<text text-anchor="middle" x="370" y="165">g</text>
<line stroke="#333" stroke-width="1.5" x1="68" x2="212" y1="40" y2="40"></line>
<line stroke="#333" stroke-width="1.5" x1="50" x2="50" y1="58" y2="142"></line>
<line stroke="#333" stroke-width="1.5" x1="63" x2="137" y1="147" y2="113"></line>
<line stroke="#333" stroke-width="1.5" x1="68" x2="212" y1="160" y2="160"></line>
<line stroke="#333" stroke-width="1.5" x1="163" x2="217" y1="113" y2="147"></line>
<line stroke="#333" stroke-width="1.5" x1="230" x2="230" y1="58" y2="142"></line>
<line stroke="#333" stroke-width="1.5" x1="243" x2="297" y1="53" y2="87"></line>
<line stroke="#333" stroke-width="1.5" x1="243" x2="297" y1="147" y2="113"></line>
<line stroke="#333" stroke-width="1.5" x1="248" x2="352" y1="160" y2="160"></line>
<line stroke="#333" stroke-width="1.5" x1="323" x2="357" y1="113" y2="147"></line>
<text font-size="13" x="140" y="35">1</text>
<text font-size="13" x="38" y="105">2</text>
<text font-size="13" x="95" y="125">3</text>
<text font-size="13" x="140" y="175">4</text>
<text font-size="13" x="195" y="125">5</text>
<text font-size="13" x="238" y="105">7</text>
<text font-size="13" x="275" y="65">6</text>
<text font-size="13" x="265" y="135">9</text>
<text font-size="13" x="300" y="175">2</text>
<text font-size="13" x="345" y="125">8</text>
</svg>