<svg xmlns="http://www.w3.org/2000/svg" height="220" style="background: #fff; border: 1px solid #ccc; font-family: sans-serif" viewbox="0 0 450 220" width="450">
<defs>
<marker id="topo-arrow" markerheight="6" markerwidth="6" orient="auto-start-reverse" refx="20" refy="5" viewbox="0 0 10 10">
<path d="M 0 1.5 L 10 5 L 0 8.5 z" fill="#333"></path>
</marker>
</defs>
<circle cx="40" cy="40" fill="none" r="16" stroke="#333" stroke-width="1.5"></circle>
<text text-anchor="middle" x="40" y="44">1</text>
<circle cx="160" cy="40" fill="none" r="16" stroke="#333" stroke-width="1.5"></circle>
<text text-anchor="middle" x="160" y="44">2</text>
<circle cx="280" cy="40" fill="none" r="16" stroke="#333" stroke-width="1.5"></circle>
<text text-anchor="middle" x="280" y="44">3</text>
<circle cx="160" cy="110" fill="none" r="16" stroke="#333" stroke-width="1.5"></circle>
<text text-anchor="middle" x="160" y="114">4</text>
<circle cx="280" cy="110" fill="none" r="16" stroke="#333" stroke-width="1.5"></circle>
<text text-anchor="middle" x="280" y="114">5</text>
<circle cx="400" cy="110" fill="none" r="16" stroke="#333" stroke-width="1.5"></circle>
<text text-anchor="middle" x="400" y="114">6</text>
<circle cx="280" cy="180" fill="none" r="16" stroke="#333" stroke-width="1.5"></circle>
<text text-anchor="middle" x="280" y="184">7</text>
<circle cx="400" cy="180" fill="none" r="16" stroke="#333" stroke-width="1.5"></circle>
<text text-anchor="middle" x="400" y="184">8</text>
<line marker-end="url(#topo-arrow)" stroke="#333" stroke-width="1.5" x1="56" x2="144" y1="40" y2="40"></line>
<line marker-end="url(#topo-arrow)" stroke="#333" stroke-width="1.5" x1="54" x2="146" y1="48" y2="102"></line>
<line marker-end="url(#topo-arrow)" stroke="#333" stroke-width="1.5" x1="176" x2="264" y1="40" y2="40"></line>
<line marker-end="url(#topo-arrow)" stroke="#333" stroke-width="1.5" x1="160" x2="160" y1="56" y2="94"></line>
<line marker-end="url(#topo-arrow)" stroke="#333" stroke-width="1.5" x1="280" x2="280" y1="56" y2="94"></line>
<line marker-end="url(#topo-arrow)" stroke="#333" stroke-width="1.5" x1="176" x2="264" y1="110" y2="110"></line>
<line marker-end="url(#topo-arrow)" stroke="#333" stroke-width="1.5" x1="174" x2="266" y1="118" y2="172"></line>
<line marker-end="url(#topo-arrow)" stroke="#333" stroke-width="1.5" x1="296" x2="384" y1="110" y2="110"></line>
<line marker-end="url(#topo-arrow)" stroke="#333" stroke-width="1.5" x1="296" x2="384" y1="180" y2="180"></line>
<line marker-end="url(#topo-arrow)" stroke="#333" stroke-width="1.5" x1="400" x2="400" y1="164" y2="126"></line>
</svg>