<svg xmlns="http://www.w3.org/2000/svg" viewBox="0 0 1200 360" role="img" aria-labelledby="title desc">
  <title id="title">GitHub content sync workflow</title>
  <desc id="desc">GitHub repository is scanned, academic folders are discovered, database records are synchronized, and results appear on the Resources page.</desc>
  <defs><linearGradient id="bg" x1="0" x2="1"><stop stop-color="#f4f0ff"/><stop offset="1" stop-color="#eef8ff"/></linearGradient><marker id="arrow" viewBox="0 0 10 10" refX="9" refY="5" markerWidth="7" markerHeight="7" orient="auto-start-reverse"><path d="M0 0 10 5 0 10z" fill="#6941c6"/></marker></defs>
  <rect width="1200" height="360" rx="28" fill="url(#bg)"/>
  <g font-family="Arial, sans-serif" text-anchor="middle">
    <g transform="translate(60 75)"><rect width="220" height="210" rx="22" fill="#24292f"/><path d="M110 40a54 54 0 0 0-17 105c3 1 4-1 4-3v-19c-19 4-23-8-23-8-3-8-8-10-8-10-6-5 1-5 1-5 7 1 11 8 11 8 6 11 17 8 21 6 1-5 3-8 6-10-15-2-31-8-31-34 0-8 3-14 8-19-1-2-4-10 1-19 0 0 7-2 21 7a72 72 0 0 1 38 0c14-9 21-7 21-7 5 9 2 17 1 19 5 5 8 11 8 19 0 26-16 32-31 34 3 2 6 7 6 14v24c0 2 1 4 4 3a54 54 0 0 0-17-105z" fill="#fff"/><text x="110" y="185" fill="#fff" font-size="20" font-weight="700">GitHub Repository</text></g>
    <g transform="translate(350 75)"><rect width="220" height="210" rx="22" fill="#fff" stroke="#8b5cf6" stroke-width="3"/><path d="M58 55h104v96H58z" fill="#ede9fe" stroke="#6941c6" stroke-width="4"/><path d="M58 79h104M86 55v96" stroke="#6941c6" stroke-width="4"/><text x="110" y="180" fill="#312e81" font-size="20" font-weight="700">Semester &amp; PDF Scan</text></g>
    <g transform="translate(640 75)"><rect width="220" height="210" rx="22" fill="#fff" stroke="#0ea5e9" stroke-width="3"/><ellipse cx="110" cy="62" rx="55" ry="21" fill="#bae6fd" stroke="#0284c7" stroke-width="4"/><path d="M55 62v78c0 12 25 22 55 22s55-10 55-22V62M55 101c0 12 25 22 55 22s55-10 55-22" fill="none" stroke="#0284c7" stroke-width="4"/><text x="110" y="190" fill="#075985" font-size="20" font-weight="700">PostgreSQL Sync</text></g>
    <g transform="translate(930 75)"><rect width="220" height="210" rx="22" fill="#fff" stroke="#22c55e" stroke-width="3"/><rect x="48" y="43" width="124" height="105" rx="8" fill="#dcfce7" stroke="#16a34a" stroke-width="4"/><path d="M68 72h84M68 96h62M68 120h72" stroke="#16a34a" stroke-width="7" stroke-linecap="round"/><text x="110" y="180" fill="#166534" font-size="20" font-weight="700">Resources Updated</text></g>
  </g>
  <g stroke="#6941c6" stroke-width="5" marker-end="url(#arrow)"><path d="M290 180h45"/><path d="M580 180h45"/><path d="M870 180h45"/></g>
</svg>
